PathFileType	4	(X/Y/Z)	/Users/visionmauri/Downloads/Videos/OAW05-top_Sports2D/OAW05-top_Sports2D_m_person00.trc
DataRate	CameraRate	NumFrames	NumMarkers	Units	OrigDataRate	OrigDataStartFrame	OrigNumFrames
28.0	28.0	8	22	m	28.0	1246	1995
Frame#	Time	Hip			RHip			RKnee			RAnkle			RBigToe			RSmallToe			RHeel			LHip			LKnee			LAnkle			LBigToe			LSmallToe			LHeel			Neck			Head			Nose			RShoulder			RElbow			RWrist			LShoulder			LElbow			LWrist			
		X1	Y1	Z1	X2	Y2	Z2	X3	Y3	Z3	X4	Y4	Z4	X5	Y5	Z5	X6	Y6	Z6	X7	Y7	Z7	X8	Y8	Z8	X9	Y9	Z9	X10	Y10	Z10	X11	Y11	Z11	X12	Y12	Z12	X13	Y13	Z13	X14	Y14	Z14	X15	Y15	Z15	X16	Y16	Z16	X17	Y17	Z17	X18	Y18	Z18	X19	Y19	Z19	X20	Y20	Z20	X21	Y21	Z21	X22	Y22	Z22
1433	51.20203707342635	5.238709608568829	0.3101746366277933	0.0301	5.218070200950312	0.35113710547962074	0.0301	5.012549584508636	0.26551345010509214	0.129	4.8539792603888365	0.19439443210593768	0.023	4.775023742976201	0.15617565024551086	0.2179	4.774529620805547	0.18173686295175734	0.1804	4.832211405029225	0.18500110301134765	-0.0119	5.251442136027967	0.26523233411149616	0.0301	5.048436867612085	0.19152814215827343	0.129	4.899320652027243	0.14489095737126226	0.023	4.806991085645424	0.11706864479639131	0.2179	4.8229974464579355	0.09922978624192472	0.1804	4.877587491220306	0.1428817279018867	-0.0119	5.493514213426719	0.4080825310092868	0.0008	5.61185857977382	0.447052652340762	0.0655	5.512024266968527	0.4106276819509773	0.1076	5.443996829990231	0.4804371651213312	-0.01275	5.279481938971287	0.4481218590786324	0.0702	5.147598191745036	0.40754601662429474	0.1076	5.507392931731991	0.3191226451595127	-0.01275	5.360250005409703	0.24077735137683792	0.0702	5.236729552569386	0.18118223296440017	0.1076
1434	51.23776773432895	5.236941149573219	0.3095656777581709	0.0301	5.215211729855843	0.3496491496668574	0.0301	5.007692270477788	0.2639333625641195	0.129	4.852703877073701	0.19484283255089363	0.023	4.774851320380925	0.15716734906457486	0.2179	4.774199290287876	0.1826564840947865	0.1804	4.831783165735395	0.18522221164574607	-0.0119	5.249302410774072	0.2634034706463234	0.0301	5.0434409585126	0.18959953593778328	0.129	4.88283604924599	0.13823306538811894	0.023	4.796258438515766	0.11526184170269867	0.2179	4.811302653949826	0.09444007573348925	0.1804	4.858529020149389	0.13496981808028283	-0.0119	5.495856813084373	0.4086625605947893	0.0008	5.613176602121766	0.4475007630996329	0.0655	5.512215050213363	0.41120392557278007	0.1076	5.443856849956474	0.4807968279991395	-0.01275	5.278657644707914	0.44867645235724635	0.0702	5.148550292229915	0.40727805898994246	0.1076	5.507492240417195	0.3183584404565055	-0.01275	5.358224655031947	0.23984192071847388	0.0702	5.23413981574874	0.18024420097498184	0.1076
1435	51.27349839523155	5.23331328354342	0.30804409305139013	0.0301	5.211849225435684	0.34818141423847593	0.0301	5.004274806296999	0.262674893504874	0.129	4.848982645010526	0.1951606105739561	0.023	4.774923482957752	0.158503089967129	0.2179	4.773470799155337	0.1842316579981296	0.1804	4.827896730036913	0.1849248936073029	-0.0119	5.246406093414621	0.2615249084130515	0.0301	5.0374985341804255	0.1871474792652885	0.129	4.866539226442734	0.13155231360074474	0.023	4.78523616179225	0.11353397486672835	0.2179	4.799629719937804	0.08933322353907383	0.1804	4.840713771377931	0.12766551796108783	-0.0119	5.495049857301533	0.4066066070424609	0.0008	5.612769727445339	0.44694488166385166	0.0655	5.512132463282666	0.4105894988197897	0.1076	5.442763255007896	0.4804849238648485	-0.01275	5.278513138140488	0.448688652927464	0.0702	5.149327088211012	0.4070857593415191	0.1076	5.505955431059718	0.31702600337353853	-0.01275	5.356041699431511	0.23816304283307	0.0702	5.2314659089285	0.17910794660128998	0.1076
1436	51.30922905613415	5.229738797787782	0.3060446805447249	0.0301	5.20847277618559	0.3466323034895988	0.0301	5.002334678010686	0.26238360278063794	0.129	4.846247387955805	0.19568166031870485	0.023	4.7748825173549285	0.15983772311252328	0.2179	4.77290670474097	0.1858461001922545	0.1804	4.824702307983233	0.1846825745389922	-0.0119	5.243046646910817	0.2601983827592445	0.0301	5.03343954023744	0.18560375013617858	0.129	4.854758808443834	0.1272963267594837	0.023	4.775378158063277	0.11190727389220988	0.2179	4.789352624204995	0.08608946718412541	0.1804	4.828307751030977	0.12408079405719709	-0.0119	5.491777330418096	0.40358426496876704	0.0008	5.612266823923913	0.4460139271762836	0.0655	5.512111618245576	0.4099581708362965	0.1076	5.440496676533727	0.4792520585857916	-0.01275	5.278781573731329	0.4484464063065991	0.0702	5.149736020808372	0.4070945721076202	0.1076	5.502951340041079	0.3152104573473362	-0.01275	5.353312958999731	0.23609753808945552	0.0702	5.227866722065921	0.17801032866673827	0.1076
1437	51.344959717036744	5.226664236574361	0.30380003866107486	0.0301	5.203828470996721	0.34424751671760423	0.0301	4.999674591907307	0.26192236025055526	0.129	4.846237410663666	0.19600737668953735	0.023	4.774672732031115	0.16111787011586962	0.2179	4.773235928956463	0.18713861007187232	0.1804	4.824075693462915	0.18457720682071616	-0.0119	5.237963539283353	0.2585029707199936	0.0301	5.03067298161968	0.18508610631977082	0.129	4.849411529262407	0.1264870532526351	0.023	4.769829406087533	0.11100649668370123	0.2179	4.783250043139154	0.08637734724226946	0.1804	4.823165819451371	0.1246510648253396	-0.0119	5.488535376001344	0.40148469119753427	0.0008	5.612365929274834	0.44494780771755416	0.0655	5.5118672515791305	0.40984763901896687	0.1076	5.4372305149073785	0.4772333619809522	-0.01275	5.277934038849225	0.44741333084625884	0.0702	5.149355051058998	0.40666169844318256	0.1076	5.499049884982174	0.31205343508763345	-0.01275	5.350105635656924	0.2331546607414892	0.0702	5.223842334091167	0.1764849374269566	0.1076
1438	51.380690377939345	5.222782773360113	0.30142801583203965	0.0301	5.19837784799394	0.34171433112330496	0.0301	4.995729379426478	0.26071266650279173	0.129	4.847252479196759	0.19534853248602438	0.023	4.774343477255015	0.16173422077805358	0.2179	4.773692270451106	0.1878334043001703	0.1804	4.824174999531152	0.18345526587337616	-0.0119	5.231623392095999	0.25573767116991514	0.0301	5.027994341914691	0.18498282091662463	0.129	4.8482687648237786	0.1278445590437655	0.023	4.769125692963465	0.11130151018998902	0.2179	4.782690064328886	0.08823006224336508	0.1804	4.819573100159677	0.1257806282890903	-0.0119	5.485164958776261	0.3995546204784504	0.0008	5.612244786783576	0.44339499257623716	0.0655	5.511084648116376	0.4091411167688703	0.1076	5.433485073538844	0.47459352330671384	-0.01275	5.27541056606467	0.4450905717850723	0.0702	5.148569174995188	0.40535424601741343	0.1076	5.494689966674401	0.30760475558307115	-0.01275	5.346838893125336	0.22959868801987432	0.0702	5.220403135860793	0.1743029951922719	0.1076
1439	51.416421038841946	5.217691890603008	0.29876898809382285	0.0301	5.194150851166399	0.3399543041212438	0.0301	4.991628204893459	0.258817337097759	0.129	4.847413986111196	0.19400630734344226	0.023	4.773216917436748	0.16102338311182401	0.2179	4.772589952291644	0.1877299433879265	0.1804	4.8235748671651795	0.1810461861123598	-0.0119	5.226446169922399	0.2522303351601667	0.0301	5.0246791104678925	0.18485980570537994	0.129	4.846962208102724	0.1301631501587589	0.023	4.7707020701144005	0.11184325565009394	0.2179	4.785207619695537	0.08906943758418884	0.1804	4.810933718554072	0.12441512217530389	-0.0119	5.480841098395575	0.39615448773542156	0.0008	5.611996577076692	0.4416326502189627	0.0655	5.510271389930842	0.40735898077262633	0.1076	5.430115828574709	0.47108142519426593	-0.01275	5.271764248347263	0.4420362592637161	0.0702	5.147138282631298	0.40255941484972657	0.1076	5.490479192528228	0.30358630932375863	-0.01275	5.343469852158856	0.22701739119895004	0.0702	5.217315825640744	0.1719726248776158	0.1076
1440	51.45215169974455	5.212874607056857	0.29571800956806127	0.0301	5.191705611313326	0.3382849707793475	0.0301	4.988342994457665	0.2563318207991282	0.129	4.846410647339512	0.19334167995248802	0.023	4.771025638657835	0.15975368571029658	0.2179	4.770097320380912	0.18728813401471792	0.1804	4.8226897451870325	0.17919736868021824	-0.0119	5.223479276958691	0.24908189734635838	0.0301	5.019793287915592	0.1847357823104138	0.129	4.842918752750726	0.13308876807560516	0.023	4.770350399415211	0.11091964833449013	0.2179	4.784443759284178	0.08846920719181328	0.1804	4.800619958788638	0.12227123064606178	-0.0119	5.47746207534915	0.391982440191357	0.0008	5.612204763201685	0.4401385321247696	0.0655	5.5094123595548705	0.40485317507488955	0.1076	5.428125127197338	0.4665129513189146	-0.01275	5.267986312690461	0.43892994719869954	0.0702	5.143426091706599	0.39781957875841706	0.1076	5.487383053811506	0.300971449750908	-0.01275	5.3398713792668815	0.2261892406247712	0.0702	5.214016906212381	0.16967122527180076	0.1076
